<svg xmlns="http://www.w3.org/2000/svg" width="250" height="22" viewBox="0 6 542 39" fill="none"><path d="M53.655 8.47705H57.796V29.5021C57.796 35.0681 55.358 38.8871 49.653 38.8871C47.491 38.8871 45.835 38.519 44.684 38.105V34.1031C45.926 34.6091 47.445 34.885 48.962 34.885C52.459 34.885 53.654 32.769 53.654 29.779V8.47705H53.655Z" fill="#172B4D"/><path d="M65.3379 6.86719C66.9479 6.86719 68.0979 7.87919 68.0979 9.62819C68.0979 11.3772 66.9489 12.3882 65.3379 12.3882C63.7269 12.3882 62.5769 11.3762 62.5769 9.62819C62.5769 7.88019 63.7269 6.86719 65.3379 6.86719ZM63.3139 15.7002H67.2709V38.7032H63.3139V15.7002Z" fill="#172B4D"/><path d="M77.114 38.7031H73.25V15.7001H77.114V19.7491C78.448 17.0341 80.749 15.1031 85.258 15.3781V19.2421C80.197 18.7361 77.114 20.2551 77.114 25.1311V38.7031Z" fill="#172B4D"/><path d="M103.795 34.5622C102.323 37.5982 99.563 39.1632 96.021 39.1632C89.902 39.1632 86.8199 33.9642 86.8199 27.2012C86.8199 20.7152 90.0399 15.2402 96.4809 15.2402C99.8389 15.2402 102.416 16.7592 103.795 19.7492V15.7002H107.752V38.7032H103.795V34.5622ZM97.0779 35.4822C100.621 35.4822 103.795 33.2282 103.795 28.1222V26.2812C103.795 21.1752 100.897 18.9212 97.5379 18.9212C93.0759 18.9212 90.7749 21.8652 90.7749 27.2012C90.7749 32.7222 92.9829 35.4822 97.0779 35.4822Z" fill="#172B4D"/><path d="M131.164 39.1631C125.322 39.1631 122.607 38.0131 120.261 36.8161V32.5841C123.067 34.0571 127.392 35.1141 131.394 35.1141C135.949 35.1141 137.65 33.3201 137.65 30.6521C137.65 27.9841 135.994 26.5571 130.243 25.1771C123.434 23.5211 120.398 21.1741 120.398 16.2051C120.398 11.5131 123.986 8.01709 131.024 8.01709C135.395 8.01709 138.202 9.07509 140.272 10.2251V14.3661C137.235 12.6181 133.969 12.0651 130.841 12.0651C126.884 12.0651 124.538 13.4461 124.538 16.2061C124.538 18.6901 126.47 19.9331 131.807 21.2671C138.202 22.8771 141.789 24.9481 141.789 30.3761C141.789 35.6201 138.66 39.1631 131.162 39.1631H131.164Z" fill="#172B4D"/><path d="M157.66 39.1632C149.056 39.1632 145.285 34.1942 145.285 27.1552C145.285 20.2092 149.148 15.2402 156.142 15.2402C163.226 15.2402 166.078 20.1632 166.078 27.1552V28.9502H149.287C149.84 32.8602 152.369 35.3902 157.799 35.3902C160.467 35.3902 162.721 34.8842 164.791 34.1482V37.7832C162.904 38.7952 160.006 39.1632 157.66 39.1632ZM149.24 25.5452H162.076C161.846 21.2672 159.914 18.8292 155.957 18.8292C151.771 18.8292 149.654 21.5432 149.24 25.5452Z" fill="#172B4D"/><path d="M174.633 38.7031H170.768V15.7001H174.633V19.7491C175.967 17.0341 178.268 15.1031 182.776 15.3781V19.2421C177.715 18.7361 174.633 20.2551 174.633 25.1311V38.7031Z" fill="#172B4D"/><path d="M192.525 38.7032L183.601 15.7002H187.742L195.195 35.3452L202.601 15.7002H206.742L197.816 38.7032H192.525Z" fill="#172B4D"/><path d="M212.168 6.86719C213.777 6.86719 214.928 7.87919 214.928 9.62819C214.928 11.3772 213.778 12.3882 212.168 12.3882C210.558 12.3882 209.406 11.3762 209.406 9.62819C209.406 7.88019 210.556 6.86719 212.168 6.86719ZM210.143 15.7002H214.1V38.7032H210.143V15.7002Z" fill="#172B4D"/><path d="M236.318 38.1042C234.937 38.8402 232.822 39.1632 230.705 39.1632C222.517 39.1632 218.699 34.1942 218.699 27.1552C218.699 20.2092 222.517 15.2402 230.705 15.2402C232.775 15.2402 234.387 15.5162 236.18 16.3442V20.0242C234.709 19.3352 233.145 18.9202 230.983 18.9202C225.003 18.9202 222.563 22.6922 222.563 27.1542C222.563 31.6162 225.047 35.3892 231.075 35.3892C233.421 35.3892 234.893 35.0672 236.319 34.5612V38.1032L236.318 38.1042Z" fill="#172B4D"/><path d="M251.818 39.1632C243.216 39.1632 239.443 34.1942 239.443 27.1552C239.443 20.2092 243.308 15.2402 250.3 15.2402C257.384 15.2402 260.238 20.1632 260.238 27.1552V28.9502H243.445C243.998 32.8602 246.529 35.3902 251.957 35.3902C254.625 35.3902 256.879 34.8842 258.949 34.1482V37.7832C257.064 38.7952 254.166 39.1632 251.818 39.1632ZM243.4 25.5452H256.236C256.006 21.2672 254.074 18.8292 250.117 18.8292C245.929 18.8292 243.814 21.5432 243.4 25.5452Z" fill="#172B4D"/><path d="M278.223 10.9621V38.703H274.082V8.47705H281.258L288.113 25.821L290.92 34.148L293.727 25.821L300.627 8.47705H307.297V38.703H303.156V11.2841L299.615 22.1861L292.943 38.703H288.941L282.363 22.1861L278.222 10.9611L278.223 10.9621Z" fill="#172B4D"/><path d="M329.514 34.5622C328.041 37.5982 325.282 39.1632 321.739 39.1632C315.62 39.1632 312.538 33.9642 312.538 27.2012C312.538 20.7152 315.759 15.2402 322.2 15.2402C325.557 15.2402 328.134 16.7592 329.514 19.7492V15.7002H333.471V38.7032H329.514V34.5622ZM322.797 35.4822C326.34 35.4822 329.514 33.2282 329.514 28.1222V26.2812C329.514 21.1752 326.616 18.9212 323.256 18.9212C318.795 18.9212 316.494 21.8652 316.494 27.2012C316.494 32.7222 318.701 35.4822 322.797 35.4822Z" fill="#172B4D"/><path d="M359 38.7032H355.043V24.8092C355.043 20.6682 353.387 18.8292 349.615 18.8292C345.935 18.8292 343.404 21.2672 343.404 25.9132V38.7032H339.447V15.7002H343.404V19.4722C344.877 16.7582 347.59 15.2402 350.674 15.2402C355.963 15.2402 359 18.8752 359 25.2232V38.7022V38.7032Z" fill="#172B4D"/><path d="M380.113 34.5622C378.64 37.5982 375.881 39.1632 372.338 39.1632C366.219 39.1632 363.137 33.9642 363.137 27.2012C363.137 20.7152 366.358 15.2402 372.799 15.2402C376.156 15.2402 378.733 16.7592 380.113 19.7492V15.7002H384.07V38.7032H380.113V34.5622ZM373.396 35.4822C376.939 35.4822 380.113 33.2282 380.113 28.1222V26.2812C380.113 21.1752 377.215 18.9212 373.855 18.9212C369.394 18.9212 367.093 21.8652 367.093 27.2012C367.093 32.7222 369.3 35.4822 373.396 35.4822Z" fill="#172B4D"/><path d="M405.551 34.5622C404.078 37.5982 401.319 39.1632 397.776 39.1632C391.704 39.1632 388.667 33.9642 388.667 27.2012C388.667 20.7152 391.841 15.2402 398.237 15.2402C401.594 15.2402 404.171 16.7592 405.551 19.7492V15.7002H409.414V36.6332C409.414 43.3962 406.24 47.9502 398.006 47.9502C394.141 47.9502 392.026 47.4442 389.817 46.7082V42.8442C392.348 43.6722 394.969 44.2242 397.823 44.2242C403.573 44.2242 405.552 41.1422 405.552 36.8632V34.5632L405.551 34.5622ZM398.834 35.4822C402.375 35.4822 405.551 33.2282 405.551 28.1222V26.2812C405.551 21.1752 402.653 18.9212 399.293 18.9212C394.83 18.9212 392.531 21.8652 392.531 27.2012C392.531 32.7222 394.738 35.4822 398.834 35.4822Z" fill="#172B4D"/><path d="M426.389 39.1632C417.785 39.1632 414.014 34.1942 414.014 27.1552C414.014 20.2092 417.877 15.2402 424.871 15.2402C431.955 15.2402 434.807 20.1632 434.807 27.1552V28.9502H418.016C418.569 32.8602 421.098 35.3902 426.528 35.3902C429.196 35.3902 431.45 34.8842 433.52 34.1482V37.7832C431.633 38.7952 428.735 39.1632 426.389 39.1632ZM417.969 25.5452H430.805C430.575 21.2672 428.643 18.8292 424.686 18.8292C420.5 18.8292 418.383 21.5432 417.969 25.5452Z" fill="#172B4D"/><path d="M459.049 38.7032H455.092V24.8092C455.092 20.6682 453.436 18.8292 449.662 18.8292C445.982 18.8292 443.453 21.2672 443.453 25.9132V38.7032H439.496V15.7002H443.453V19.4722C444.924 16.7582 447.639 15.2402 450.721 15.2402C454.631 15.2402 457.299 17.2192 458.45 20.8522C459.739 17.3102 462.821 15.2402 466.639 15.2402C471.791 15.2402 474.645 18.7362 474.645 25.2232V38.7022H470.688V25.9122C470.688 21.1742 469.032 18.8282 465.258 18.8282C461.578 18.8282 459.049 21.2662 459.049 25.9122V38.7022V38.7032Z" fill="#172B4D"/><path d="M491.154 39.1632C482.552 39.1632 478.779 34.1942 478.779 27.1552C478.779 20.2092 482.644 15.2402 489.636 15.2402C496.72 15.2402 499.574 20.1632 499.574 27.1552V28.9502H482.781C483.334 32.8602 485.865 35.3902 491.293 35.3902C493.961 35.3902 496.215 34.8842 498.285 34.1482V37.7832C496.4 38.7952 493.502 39.1632 491.154 39.1632ZM482.736 25.5452H495.572C495.342 21.2672 493.41 18.8292 489.453 18.8292C485.265 18.8292 483.15 21.5432 482.736 25.5452Z" fill="#172B4D"/><path d="M523.816 38.7032H519.859V24.8092C519.859 20.6682 518.203 18.8292 514.429 18.8292C510.749 18.8292 508.22 21.2672 508.22 25.9132V38.7032H504.263V15.7002H508.22V19.4722C509.691 16.7582 512.406 15.2402 515.488 15.2402C520.779 15.2402 523.816 18.8752 523.816 25.2232V38.7022V38.7032Z" fill="#172B4D"/><path d="M538.541 34.9763C539.461 34.9763 540.336 34.7913 541.025 34.6543V38.4723C540.336 38.6573 539.552 38.8403 538.357 38.8403C533.435 38.8403 531.043 35.9423 531.043 31.6633V19.3803H527.316V15.6993H531.043V10.8223H534.906V15.6993H541.025V19.3803H534.906V31.5713C534.906 33.5953 536.103 34.9753 538.541 34.9753V34.9763Z" fill="#172B4D"/><path d="M18.7379 19.3652L29.6659 19.4322C31.0659 19.4412 31.8589 21.0402 31.0189 22.1602L14.8909 43.6712C9.82089 39.8822 8.78189 32.7002 12.5709 27.6302L18.7379 19.3652Z" fill="url(#paint0_linear_818_526)"/><path d="M12.5619 27.63L1.69695 27.563C0.29795 27.554 -0.49505 25.958 0.34195 24.838L16.316 3.5C21.386 7.289 22.4249 14.471 18.636 19.541L12.5619 27.63Z" fill="#1D7AFC"/><defs><linearGradient id="paint0_linear_818_526" x1="18.3052" y1="20.9799" x2="22.8997" y2="34.8695" gradientUnits="userSpaceOnUse"><stop stop-color="#0055CC"/><stop offset="1" stop-color="#1D7AFC"/></linearGradient></defs></svg>